<?xml version="1.0" encoding="utf-8"?>
<!-- Generator: Adobe Illustrator 25.4.1, SVG Export Plug-In . SVG Version: 6.00 Build 0)  -->
<svg version="1.1" id="Layer_1" xmlns="http://www.w3.org/2000/svg" xmlns:xlink="http://www.w3.org/1999/xlink" x="0px" y="0px"
	 viewBox="0 0 472.3 149.6" style="enable-background:new 0 0 472.3 149.6;" xml:space="preserve">
<style type="text/css">
	.st0{fill:#FFFFFF;}
</style>
<g>
	<path class="st0" d="M135.5,7.8c-24.5,0-46.7,14.2-57.2,36.3C68.6,23.5,48.9,9.8,26.2,8C24,3.1,19.2,0,13.8,0C6.2,0,0,6.2,0,13.8
		c0,7.6,6.2,13.8,13.8,13.8c5.2,0,9.9-2.9,12.2-7.5c26,2.5,46.3,24.7,46.3,50.9v66.3c-5-0.5-9.9-1.7-14.6-3.4V76.7
		c0-17.6-14.1-32.1-31.6-32.6c-2.3-4.8-7.1-7.8-12.4-7.8C6.2,36.3,0,42.5,0,50.1s6.2,13.8,13.8,13.8c5.3,0,10.1-3,12.4-7.7
		c10.9,0.5,19.6,9.7,19.6,20.6v50.9c-11-7.4-19.1-18.2-23.2-30.7c3.1-2.6,4.9-6.4,4.9-10.5c0-7.6-6.2-13.8-13.8-13.8
		C6.2,72.6,0,78.8,0,86.4c0,6.6,4.6,12.1,10.9,13.5c9.1,29.3,36.7,49.8,67.4,49.8c38.9,0,70.5-31.6,70.5-70.5V7.8H135.5z
		 M136.8,19.8V79c0,29.8-23,55.2-52.5,58.2V70.9c0-28.2,22.9-51.2,51.2-51.2H136.8z M18.5,13.8c0,2.6-2.1,4.8-4.8,4.8S9,16.4,9,13.8
		C9,11.1,11.1,9,13.8,9S18.5,11.1,18.5,13.8z M18.5,50.7c-0.3,2.4-2.3,4.2-4.7,4.2c-2.6,0-4.8-2.1-4.8-4.8s2.1-4.8,4.8-4.8
		c2.4,0,4.4,1.8,4.7,4.2V50.7z M18.5,86.4c0,2.6-2.1,4.8-4.8,4.8S9,89,9,86.4c0-2.6,2.1-4.8,4.8-4.8S18.5,83.7,18.5,86.4z"/>
	<g>
		<rect x="327" y="8.3" class="st0" width="12.2" height="107.7"/>
		<rect x="364.2" y="45.3" class="st0" width="12.2" height="70.8"/>
		<path class="st0" d="M376.6,15.1c-1.7-1.5-3.7-2.3-6.1-2.3c-2.4,0-4.4,0.8-6.1,2.3c-1.7,1.6-2.6,3.6-2.6,6c0,2.4,0.9,4.4,2.6,6
			c1.7,1.5,3.7,2.3,6.1,2.3c2.4,0,4.4-0.8,6.1-2.3c1.7-1.6,2.6-3.6,2.6-6C379.2,18.7,378.3,16.7,376.6,15.1z"/>
		<path class="st0" d="M462,54.2c-6.9-6.9-15.6-10.4-25.8-10.4c-5.3,0-10.5,1.2-15.5,3.6c-3.6,1.8-6.6,4.1-9,6.9v-9.1h-12.3V149
			h12.3v-41.5c2.4,2.7,5.4,5,9,6.6c4.9,2.2,10.1,3.3,15.5,3.3c10.2,0,18.9-3.4,25.8-10c6.9-6.6,10.4-15.6,10.4-26.5
			C472.3,70.1,468.9,61.1,462,54.2z M436.2,105.2c-6.4,0-12.1-2.2-17.1-6.5c-5-4.3-7.4-10.1-7.4-17.7c0-7.7,2.4-13.8,7-18.2
			c4.7-4.4,10.5-6.7,17.5-6.7c6.7,0,12.4,2.4,17,7.1c4.6,4.7,6.9,10.7,6.9,17.8c0,7.3-2.3,13.2-6.8,17.6
			C448.8,103,443,105.2,436.2,105.2z"/>
		<path class="st0" d="M273.4,117.9c-16.8,0-30.5-13.7-30.5-30.5V45.2H255v42.1c0,10.2,8.3,18.5,18.5,18.5
			c10.2,0,18.5-8.3,18.5-18.5V45.2H304v42.1C304,104.2,290.3,117.9,273.4,117.9z"/>
		<path class="st0" d="M218.8,116.3c-9.8,0-17.7-7.9-17.7-17.7V19.5h12.1v79.1c0,3.1,2.5,5.6,5.6,5.6c4.8,0,8.9-1.1,8.9-1.1V114
			C227.7,114,223.3,116.3,218.8,116.3z"/>
		<rect x="193.9" y="45.2" class="st0" width="33.9" height="12.1"/>
	</g>
</g>
</svg>
